<svg width="318" height="318" viewBox="0 0 318 318" fill="none" xmlns="http://www.w3.org/2000/svg">
<path d="M84.4534 37.2246C100.948 36.6806 117.598 37.3216 134.117 37.1226C137.523 37.0816 145.595 36.7887 148.194 39.1717C154.92 45.3437 160.809 52.4946 166.795 59.4056C174.553 68.3876 182.365 77.3216 190.231 86.2096L227.118 128.256C233.71 135.759 240.541 143.22 246.858 150.959C248.022 152.439 249.53 155.559 249.506 157.474C249.42 164.261 238.385 175.244 234.274 180.075L213.766 204.156C194.506 227.056 175.046 249.787 155.389 272.347C151.751 276.566 148.179 281.549 141.779 281.484C122.402 281.287 102.138 282.39 82.8514 281.054C79.9994 280.856 77.7874 276.687 79.7414 273.434C84.2784 265.879 90.0514 258.943 95.2064 251.655L142.908 185.179C147.779 178.324 162.461 160.146 159.435 154.082C155.341 145.877 139.319 125.679 133.474 117.826L95.2344 65.9986C90.4074 59.5666 83.8474 52.2576 80.0844 45.1786C77.8304 40.9396 80.0774 38.3746 84.4534 37.2246Z" fill="#EA140F" style="fill:#EA140F;fill:color(display-p3 0.9176 0.0784 0.0588);fill-opacity:1;"/>
</svg>
